# File created by Blade
# Date/Time:  Tue Apr 07 20:57:09 2015
# Frame Rate: 120.000 fps
#------------------------------------------------------
:FULLY-SPECIFIED
:DEGREES
714
root 19.244589 33.319091 10.006016 364.828781 -49.640987 -624.440325
Spine -2.597278 -25.537015 20.970329
Head -21.808425 -15.791971 -4.613938
LeftShoulder 8.866171 13.506410 46.307473
LeftArm 91.035827 -32.073346 -65.210016
LeftForeArm -11.919726 -0.000000 15.423142
LeftHand 12.853768 0.000000 3.633391
LeftHandThumb1 -26.253704 0.000000 33.147579
RightShoulder 1.484216 29.421378 -40.873630
RightArm 44.135190 9.862628 57.356736
RightForeArm -4.644846 -0.000000 20.672686
RightHand 19.817335 -0.000000 -25.749259
RightHandThumb1 -24.326973 -0.000000 -32.862282
LeftUpLeg -15.270147 19.513443 -3.163896
LeftLeg 3.969381 -0.000000 -0.000000
LeftFoot 43.789101 20.027171 -12.072593
LeftToeBase 19.165723 -0.000000 -0.000000
RightUpLeg -83.684733 -33.196230 -5.725889
RightLeg 1.074618 -0.000000 -0.000000
RightFoot -12.602786 -25.527776 -4.199757
RightToeBase -7.263991 -0.000000 0.000000
715
root 19.637367 33.410660 10.057487 365.605338 -52.074849 -626.686012
Spine -2.236693 -23.586332 21.355049
Head -20.921925 -15.391621 -5.431735
LeftShoulder 8.442066 13.430609 45.613344
LeftArm 90.828538 -32.461669 -65.078007
LeftForeArm -10.742546 -0.000000 16.453651
LeftHand 13.093863 -0.000000 4.745481
LeftHandThumb1 -26.253704 0.000000 33.147579
RightShoulder 1.334876 29.623963 -40.614881
RightArm 44.157856 10.061864 57.637101
RightForeArm -6.544288 -0.000000 21.771409
RightHand 20.410206 -0.000000 -25.545081
RightHandThumb1 -24.326973 -0.000000 -32.862282
LeftUpLeg -16.932293 19.779763 -4.638340
LeftLeg 4.026593 -0.000000 -0.000000
LeftFoot 43.959031 19.273322 -12.929350
LeftToeBase 18.649713 -0.000000 -0.000000
RightUpLeg -83.310814 -30.813342 -4.336639
RightLeg -0.027589 -0.000000 0.000000
RightFoot -11.176791 -24.282875 -3.354358
RightToeBase -7.533657 -0.000000 0.000000
716
root 20.036302 33.515442 10.123356 366.359623 -54.309908 -628.954349
Spine -1.841748 -21.995238 21.749227
Head -20.014399 -14.919621 -6.051422
LeftShoulder 7.895114 13.803225 44.960842
LeftArm 91.238831 -33.028173 -65.360052
LeftForeArm -9.788842 0.000000 17.163744
LeftHand 13.508178 -0.000000 5.898150
LeftHandThumb1 -26.253704 0.000000 33.147579
RightShoulder 1.192623 29.572898 -40.431374
RightArm 44.436671 10.300335 57.751696
RightForeArm -8.707921 -0.000000 22.822572
RightHand 21.090201 -0.000000 -25.500886
RightHandThumb1 -24.326973 -0.000000 -32.862282
LeftUpLeg -18.186197 19.402089 -5.668171
LeftLeg 3.766290 -0.000000 -0.000000
LeftFoot 44.323642 18.806172 -14.439582
LeftToeBase 17.928796 -0.000000 -0.000000
RightUpLeg -82.689841 -28.763055 -3.534658
RightLeg -0.699313 -0.000000 0.000000
RightFoot -9.991647 -22.594055 -1.702560
RightToeBase -8.072552 -0.000000 0.000000
717
root 20.439580 33.614196 10.195658 367.064072 -56.282822 -631.397886
Spine -1.287679 -20.978457 22.179027
Head -19.055957 -14.106557 -6.641603
LeftShoulder 7.123035 14.576625 44.235502
LeftArm 92.170314 -33.730525 -65.954926
LeftForeArm -8.694532 -0.000000 17.517894
LeftHand 14.050473 -0.000000 6.987592
LeftHandThumb1 -26.253704 0.000000 33.147579
RightShoulder 1.125910 29.400994 -40.341532
RightArm 44.927425 10.423698 57.732045
RightForeArm -10.353815 -0.000000 23.829582
RightHand 21.202971 0.000000 -25.573486
RightHandThumb1 -24.326973 -0.000000 -32.862282
LeftUpLeg -18.830235 18.470105 -6.076697
LeftLeg 3.179865 -0.000000 -0.000000
LeftFoot 44.633887 18.447300 -15.800243
LeftToeBase 16.559610 -0.000000 -0.000000
RightUpLeg -81.872506 -27.037726 -3.027804
RightLeg -0.890535 -0.000000 0.000000
RightFoot -9.162101 -20.729211 0.416033
RightToeBase -8.263986 -0.000000 0.000000
718
root 20.847440 33.707338 10.280673 367.417590 -58.008832 -633.674344
Spine -0.594246 -20.369692 22.339673
Head -17.907283 -13.100550 -6.941795
LeftShoulder 6.326742 15.376956 43.601118
LeftArm 93.104510 -34.400459 -66.405419
LeftForeArm -8.121501 -0.000000 17.601307
LeftHand 14.431318 -0.000000 8.292071
LeftHandThumb1 -26.253704 0.000000 33.147579
RightShoulder 1.074146 28.811225 -40.222787
RightArm 45.769733 10.624645 57.597620
RightForeArm -11.263080 -0.000000 24.588930
RightHand 21.112518 -0.000000 -25.432398
RightHandThumb1 -24.326973 -0.000000 -32.862282
LeftUpLeg -19.015686 17.355769 -6.239456
LeftLeg 2.563366 -0.000000 -0.000000
LeftFoot 44.577094 17.999481 -16.224649
LeftToeBase 15.953489 -0.000000 -0.000000
RightUpLeg -80.900433 -25.596764 -2.777852
RightLeg -0.825154 -0.000000 0.000000
RightFoot -8.507594 -18.979323 2.563739
RightToeBase -8.460916 -0.000000 0.000000
719
root 21.264050 33.788816 10.376587 367.461425 -59.526819 -635.872748
Spine 0.197541 -20.053958 22.342449
Head -16.396592 -12.229188 -7.143668
LeftShoulder 5.614321 16.497615 42.990152
LeftArm 94.628802 -35.131877 -67.233695
LeftForeArm -8.103252 -0.000000 17.301142
LeftHand 14.679697 -0.000000 8.976339
LeftHandThumb1 -26.253704 0.000000 33.147579
RightShoulder 1.037595 27.837831 -40.207539
RightArm 46.627926 10.656609 57.053354
RightForeArm -11.077633 -0.000000 25.436416
RightHand 20.393572 -0.000000 -24.781645
RightHandThumb1 -24.326973 -0.000000 -32.862282
LeftUpLeg -18.823750 16.594763 -6.243242
LeftLeg 2.104683 -0.000000 -0.000000
LeftFoot 44.036873 17.950430 -16.132546
LeftToeBase 15.693020 -0.000000 -0.000000
RightUpLeg -79.820959 -24.337771 -2.528867
RightLeg -0.578206 -0.000000 0.000000
RightFoot -7.801432 -17.711832 4.146180
RightToeBase -9.122507 -0.000000 0.000000
720
root 21.678385 33.857921 10.478147 367.171895 -60.782451 -637.867578
Spine 0.943691 -20.112001 22.192774
Head -14.500537 -11.361454 -7.324171
LeftShoulder 4.990655 17.796231 42.393337
LeftArm 96.215231 -35.883306 -68.084861
LeftForeArm -8.519655 -0.000000 16.909117
LeftHand 14.770805 0.000000 8.997431
LeftHandThumb1 -26.253704 0.000000 33.147579
RightShoulder 1.068507 26.875160 -40.223422
RightArm 47.519538 10.791811 56.795263
RightForeArm -10.829798 -0.000000 25.998354
RightHand 19.810422 -0.000000 -23.710732
RightHandThumb1 -24.326973 -0.000000 -32.862282
LeftUpLeg -18.265150 15.863632 -6.120241
LeftLeg 1.783311 -0.000000 -0.000000
LeftFoot 42.912006 18.734453 -15.995202
LeftToeBase 16.425171 -0.000000 -0.000000
RightUpLeg -78.503547 -23.278137 -2.448516
RightLeg -0.393412 -0.000000 0.000000
RightFoot -7.296990 -16.781241 5.528174
RightToeBase -9.240446 -0.000000 0.000000
721
root 22.087198 33.917906 10.579316 366.710594 -61.870332 -639.697677
Spine 1.643698 -20.293543 21.889953
Head -12.492369 -10.497215 -7.284666
LeftShoulder 4.293179 19.040000 41.890080
LeftArm 97.863359 -36.349680 -69.029162
LeftForeArm -9.269888 -0.000000 16.416459
LeftHand 14.789368 -0.000000 8.764480
LeftHandThumb1 -26.253704 0.000000 33.147579
RightShoulder 0.934999 26.017827 -40.296651
RightArm 48.272004 10.708031 56.560281
RightForeArm -10.442230 0.000000 26.452402
RightHand 19.005724 -0.000000 -22.652785
RightHandThumb1 -24.326973 -0.000000 -32.862282
LeftUpLeg -17.508068 15.342024 -5.965784
LeftLeg 1.505470 -0.000000 -0.000000
LeftFoot 41.806779 20.341958 -15.955617
LeftToeBase 17.132674 -0.000000 -0.000000
RightUpLeg -77.053276 -22.300946 -2.485104
RightLeg -0.342090 -0.000000 0.000000
RightFoot -6.690172 -16.470826 6.462364
RightToeBase -8.900419 -0.000000 0.000000
722
root 22.479362 33.946620 10.681103 366.032723 -62.637260 -641.451513
Spine 2.213633 -20.869665 21.527905
Head -10.180788 -9.640885 -7.215012
LeftShoulder 3.686563 20.314355 41.475005
LeftArm 99.332736 -36.624462 -70.132652
LeftForeArm -10.086892 0.000000 16.140550
LeftHand 14.669228 -0.000000 7.836223
LeftHandThumb1 -26.253704 0.000000 33.147579
RightShoulder 0.952433 25.238845 -40.301216
RightArm 48.827560 10.439900 56.238396
RightForeArm -9.723272 -0.000000 26.789489
RightHand 18.538781 -0.000000 -22.057841
RightHandThumb1 -24.326973 -0.000000 -32.862282
LeftUpLeg -16.426727 15.066434 -5.711327
LeftLeg 1.374171 -0.000000 -0.000000
LeftFoot 40.988219 21.265060 -15.590964
LeftToeBase 17.327471 -0.000000 -0.000000
RightUpLeg -75.307213 -21.617586 -2.509652
RightLeg -0.472375 -0.000000 0.000000
RightFoot -6.372338 -16.263609 7.240161
RightToeBase -7.982746 -0.000000 0.000000
723
root 22.855304 33.955155 10.778636 365.111609 -63.203674 -642.930475
Spine 2.545406 -21.713691 20.986202
Head -7.444427 -8.686053 -7.022114
LeftShoulder 3.165169 21.542767 41.184659
LeftArm 100.326773 -36.713430 -71.056620
LeftForeArm -11.299266 -0.000000 16.120834
LeftHand 14.322578 0.000000 6.720147
LeftHandThumb1 -26.253704 0.000000 33.147579
RightShoulder 1.158665 24.520428 -40.174203
RightArm 49.254975 10.061885 55.935118
RightForeArm -9.069806 -0.000000 26.879224
RightHand 18.680496 -0.000000 -22.146432
RightHandThumb1 -24.326973 -0.000000 -32.862282
LeftUpLeg -15.246278 15.027745 -5.497157
LeftLeg 1.492280 -0.000000 -0.000000
LeftFoot 40.624008 21.219508 -14.732440
LeftToeBase 17.252107 -0.000000 -0.000000
RightUpLeg -73.765001 -21.177299 -2.167692
RightLeg -0.486820 -0.000000 0.000000
RightFoot -6.202339 -16.175928 7.322245
RightToeBase -6.855898 -0.000000 0.000000
724
root 23.214589 33.949719 10.865382 364.040220 -63.568401 -644.306884
Spine 2.808587 -22.473071 20.264806
Head -4.455722 -7.953518 -6.509748
LeftShoulder 2.939099 22.542104 41.250917
LeftArm 101.062740 -36.626657 -71.902580
LeftForeArm -12.124888 -0.000000 16.105590
LeftHand 14.290230 -0.000000 5.904921
LeftHandThumb1 -26.253704 0.000000 33.147579
RightShoulder 1.303916 23.756196 -39.913617
RightArm 49.386576 9.642614 55.525424
RightForeArm -8.485009 -0.000000 26.983326
RightHand 18.883417 -0.000000 -22.754142
RightHandThumb1 -24.326973 -0.000000 -32.862282
LeftUpLeg -13.944179 15.106820 -5.194827
LeftLeg 1.880870 -0.000000 -0.000000
LeftFoot 40.524448 20.714022 -13.862739
LeftToeBase 18.120814 -0.000000 -0.000000
RightUpLeg -72.259313 -21.003453 -1.544745
RightLeg -0.486980 -0.000000 0.000000
RightFoot -6.204045 -16.058499 7.371935
RightToeBase -6.224366 -0.000000 0.000000
